<svg width="290" height="276" viewBox="0 0 290 276" fill="none" xmlns="http://www.w3.org/2000/svg">
<g clip-path="url(#clip0)">
<path d="M153.325 0.186223C108.514 -2.63838 95.2666 41.4688 72.8253 57.7646C50.384 74.0603 21.4274 75.7985 7.60066 100.061C-11.7278 134.174 10.6411 147.934 18.8213 178.498C27.0016 209.062 -1.01392 225.357 27.0016 252.879C53.714 279.17 89.6201 255.559 122.775 260.122C155.858 264.685 190.244 289.961 222.603 262.005C252.139 236.511 230.277 214.566 250.112 192.404C269.947 170.242 301.582 158.002 285.728 114.691C264.807 57.2576 220.504 82.0996 209.356 61.6755C198.135 41.4688 193.574 2.72112 153.325 0.186223Z" fill="#FCF9EB"/>
<path d="M139.787 208.844C176.249 208.844 205.808 180.342 205.808 145.182C205.808 110.023 176.249 81.5202 139.787 81.5202C103.324 81.5202 73.7656 110.023 73.7656 145.182C73.7656 180.342 103.324 208.844 139.787 208.844Z" fill="#F4EED4"/>
<path d="M137.615 204.644C172.878 204.644 201.464 177.082 201.464 143.082C201.464 109.082 172.878 81.5202 137.615 81.5202C102.352 81.5202 73.7656 109.082 73.7656 143.082C73.7656 177.082 102.352 204.644 137.615 204.644Z" fill="#F9BD46"/>
<path d="M114.596 137.505C114.596 139.171 113.221 140.547 111.556 140.547C109.891 140.547 108.516 139.171 108.516 137.505C108.516 135.839 109.891 134.463 111.556 134.463C113.221 134.463 114.596 135.839 114.596 137.505Z" fill="#33220E"/>
<path d="M166.354 137.505C166.354 139.171 164.979 140.547 163.314 140.547C161.649 140.547 160.273 139.171 160.273 137.505C160.273 135.839 161.649 134.463 163.314 134.463C164.979 134.463 166.354 135.839 166.354 137.505Z" fill="#33220E"/>
<path d="M111.409 151.049C115.967 151.049 119.662 149.265 119.662 147.065C119.662 144.865 115.967 143.082 111.409 143.082C106.851 143.082 103.156 144.865 103.156 147.065C103.156 149.265 106.851 151.049 111.409 151.049Z" fill="#F487AE"/>
<path d="M166.354 152.28C170.912 152.28 174.607 150.497 174.607 148.297C174.607 146.097 170.912 144.313 166.354 144.313C161.796 144.313 158.102 146.097 158.102 148.297C158.102 150.497 161.796 152.28 166.354 152.28Z" fill="#F487AE"/>
<path opacity="0.53" d="M117.419 90.6458C112.714 90.8631 108.588 94.4844 105.04 97.309C101.204 100.351 97.7289 103.755 94.6884 107.593C89.1867 114.619 84.3364 122.948 84.0469 132.073C84.0469 133.015 86.2186 133.594 86.653 132.942C91.5756 126.279 94.2541 121.065 99.8282 114.401C102.362 111.432 106.633 107.956 109.963 105.855C113.365 103.61 118.36 102.306 120.966 99.2644C123.573 96.1501 122.052 90.4285 117.419 90.6458Z" fill="white"/>
<path d="M237.301 85.8657C227.021 91.0079 252.286 123.382 241.644 140.619C231.003 157.857 215.583 169.879 213.629 189.724C211.674 209.496 218.479 240.929 197.196 244.768C175.985 248.606 148.983 230.572 141.672 249.113C137.473 259.76 198.282 279.821 221.737 250.127C242.803 223.547 230.641 198.56 240.559 184.437C252.141 167.996 282.328 158.219 274.8 122.151C267.488 86.0106 247.001 81.0132 237.301 85.8657Z" fill="#F4EED4"/>
<g clip-path="url(#clip1)">
<path d="M128.349 162.314C128.906 160.043 130.487 158.019 132.457 156.632C133.442 155.938 134.506 155.386 135.72 154.972C136.862 154.562 138.086 154.365 139.312 154.241C141.696 154.068 144.255 154.613 146.404 155.755C148.415 157.047 150.233 158.928 151.054 161.213C151.147 161.717 150.952 162.232 150.452 162.398C150.093 162.486 149.728 162.429 149.499 162.148C148.13 160.611 146.566 159.59 144.869 158.864C143.172 158.138 141.276 157.855 139.465 157.859C138.524 157.899 137.587 158.011 136.653 158.195C135.722 158.452 134.863 158.705 134.013 159.176C132.308 159.973 130.766 161.197 129.606 162.913C129.401 163.212 128.97 163.303 128.672 163.098C128.373 162.893 128.289 162.606 128.349 162.314Z" fill="#33220E"/>
</g>
</g>
<defs>
<clipPath id="clip0">
<rect width="290" height="275" fill="white" transform="translate(0 0.0413818)"/>
</clipPath>
<clipPath id="clip1">
<rect width="22.8033" height="8.54623" fill="white" transform="translate(151.105 162.371) rotate(177.589)"/>
</clipPath>
</defs>
</svg>
