<svg width="365" height="370" viewBox="0 0 365 370" fill="none" xmlns="http://www.w3.org/2000/svg">
<g clip-path="url(#clip0)">
<path d="M242.557 308.835C138.749 319.597 80.9335 250.963 74.2714 188.641C66.8396 117.992 112.761 52.5643 216.569 41.8021C229.899 40.4296 226.694 35.2745 240.092 35.9167L249.96 46.0938L242.334 57.7427L257.638 80.4124L250.01 101.194L268.987 135.701L274.037 146.028L268.091 155.528L286.599 185.066L268.3 235.644L277.026 249.817L268.007 261.616L271.977 288.228L242.557 308.835C237.403 309.757 247.745 308.35 242.557 308.835Z" fill="url(#paint0_radial)"/>
<path d="M229.008 310.795C125.199 321.557 52.6423 257.082 48.3148 191.42C43.2859 114.308 98.0551 47.4559 201.863 36.6937C215.194 35.3212 227.651 35.1573 241.048 35.7995L221.215 54.882L228.947 76.7265L225.148 91.9023L246.009 117.747L225.605 135.687L230.504 146.333L216.597 164.259L242.51 191.868L230.261 223.981L251.288 252.579L242.269 264.378L258.008 289.298L244.135 308.802C238.796 309.606 234.229 310.175 229.008 310.795Z" fill="white"/>
<path d="M227.095 311.029C123.286 321.792 52.98 254.027 46.4018 191.655C38.97 121.005 96.142 47.6903 199.95 36.9281C213.281 35.5556 226.779 35.2241 240.092 35.9167L219.251 55.0324L226.984 76.877L223.185 92.0528L244.045 117.897L223.171 134.864L228.222 145.191L212.971 164.493L238.985 192.27L227.542 224.014L249.241 252.779L240.221 264.579L255.961 289.499L242.608 308.919C237.403 309.757 232.232 310.46 227.095 311.029Z" fill="url(#paint1_radial)"/>
<path d="M148.804 221.481C147.806 221.531 146.889 221.228 146.054 220.569C145.315 219.806 144.919 218.925 144.869 217.926L144.03 201.447L97.5902 203.81C96.5915 203.861 95.6749 203.557 94.8403 202.899C94.1006 202.135 93.7053 201.254 93.6545 200.256L92.8846 185.125C92.8084 183.627 93.2814 182.101 94.3038 180.547L134.76 119.613C136.071 117.844 137.876 116.901 140.173 116.784L162.943 115.625C164.042 115.569 164.959 115.873 165.693 116.537C166.528 117.195 166.973 118.074 167.029 119.172L169.964 176.848L183.146 176.177C184.345 176.116 185.314 176.467 186.054 177.231C186.788 177.894 187.181 178.725 187.232 179.724L188.032 195.454C188.083 196.452 187.779 197.369 187.121 198.203C186.457 198.938 185.576 199.333 184.478 199.389L171.145 200.068L171.984 216.546C172.039 217.645 171.686 218.564 170.922 219.304C170.259 220.039 169.378 220.434 168.279 220.49L148.804 221.481ZM119.382 180.473L143.501 179.246L141.786 145.539L119.382 180.473Z" fill="url(#paint2_linear)"/>
</g>
<defs>
<radialGradient id="paint0_radial" cx="0" cy="0" r="1" gradientUnits="userSpaceOnUse" gradientTransform="translate(210.659 160.826) rotate(84.064) scale(299.037)">
<stop stop-color="#E8E8E8"/>
<stop offset="0.2429" stop-color="#E4E3E3"/>
<stop offset="0.5459" stop-color="#D7D6D3"/>
<stop offset="0.8795" stop-color="#C2C0BA"/>
<stop offset="1" stop-color="#B9B6AF"/>
</radialGradient>
<radialGradient id="paint1_radial" cx="0" cy="0" r="1" gradientUnits="userSpaceOnUse" gradientTransform="translate(180.775 162.585) rotate(84.064) scale(299.051)">
<stop stop-color="white"/>
<stop offset="0.1984" stop-color="#FAFAFA"/>
<stop offset="0.4458" stop-color="#EDECEA"/>
<stop offset="0.7192" stop-color="#D7D5D1"/>
<stop offset="1" stop-color="#B9B6AF"/>
</radialGradient>
<linearGradient id="paint2_linear" x1="133.781" y1="117.109" x2="139.117" y2="221.974" gradientUnits="userSpaceOnUse">
<stop stop-color="#8CC97B"/>
<stop offset="1" stop-color="#76B763"/>
</linearGradient>
<clipPath id="clip0">
<rect width="275.964" height="259.224" fill="white" transform="translate(222.324) rotate(59.0544)"/>
</clipPath>
</defs>
</svg>
