<svg width="372" height="374" viewBox="0 0 372 374" fill="none" xmlns="http://www.w3.org/2000/svg">
<g clip-path="url(#clip0)">
<path d="M121.78 311.155L127.74 293.235L102.556 263.591L106.711 248.863L84.4209 208.28L100.624 187.138L89.1644 139.101L97.4036 132.066L93.0067 115.035L117.069 101.784L115.521 73.2497L135.044 62.6975L133.403 50.9108L168.775 36.2681C258.901 57.4426 324.607 122.327 319.905 185.757C314.652 254.763 223.177 312.5 121.78 311.155Z" fill="url(#paint0_radial)"/>
<path d="M121.782 311.155L138.655 294.003L131.503 261.869L138.475 255.856L121.907 223.049L139.198 193.238L118.031 160.581L136.858 143.913L133.699 132.671L157.761 119.42L141.427 89.5724L148.077 75.0021L144.318 51.6792L168.7 36.2032C258.826 57.3776 335.522 123.095 330.744 186.46C325.578 255.672 223.178 312.5 121.782 311.155Z" fill="white"/>
<path d="M123.993 311.335L140.866 294.183L133.714 262.049L140.686 256.036L124.118 223.228L141.409 193.417L120.242 160.76L139.069 144.092L135.91 132.851L159.972 119.599L143.638 89.7521L150.288 75.1817L146.529 51.8589L170.911 36.3828C261.037 57.5573 337.733 123.275 332.955 186.64C327.854 255.776 225.389 312.679 123.993 311.335Z" fill="url(#paint1_radial)"/>
</g>
<path d="M239.264 224.001C238.298 224.26 237.338 224.154 236.384 223.685C235.501 223.094 234.93 222.315 234.671 221.349L230.401 205.411L185.485 217.446C184.519 217.705 183.559 217.6 182.605 217.131C181.722 216.539 181.151 215.761 180.892 214.795L176.971 200.161C176.583 198.712 176.726 197.121 177.4 195.387L204.2 127.332C205.112 125.328 206.679 124.028 208.9 123.433L230.924 117.532C231.986 117.247 232.946 117.352 233.803 117.847C234.757 118.316 235.377 119.082 235.661 120.144L250.608 175.927L263.358 172.51C264.517 172.2 265.539 172.34 266.422 172.932C267.279 173.427 267.837 174.157 268.096 175.123L272.172 190.336C272.431 191.302 272.326 192.262 271.857 193.216C271.362 194.073 270.583 194.644 269.521 194.929L256.626 198.384L260.896 214.322C261.181 215.385 261.027 216.358 260.436 217.241C259.941 218.098 259.162 218.669 258.1 218.954L239.264 224.001ZM201.907 190.063L225.234 183.812L216.499 151.213L201.907 190.063Z" fill="url(#paint2_linear)"/>
<defs>
<radialGradient id="paint0_radial" cx="0" cy="0" r="1" gradientUnits="userSpaceOnUse" gradientTransform="translate(175.513 161.953) rotate(-85.7233) scale(203.983)">
<stop stop-color="#E8E8E8"/>
<stop offset="0.2429" stop-color="#E4E3E3"/>
<stop offset="0.5459" stop-color="#D7D6D3"/>
<stop offset="0.8795" stop-color="#C2C0BA"/>
<stop offset="1" stop-color="#B9B6AF"/>
</radialGradient>
<radialGradient id="paint1_radial" cx="0" cy="0" r="1" gradientUnits="userSpaceOnUse" gradientTransform="translate(184.121 174.796) rotate(94.2767) scale(212.935)">
<stop stop-color="white"/>
<stop offset="0.1984" stop-color="#FAFAFA"/>
<stop offset="0.4458" stop-color="#EDECEA"/>
<stop offset="0.7192" stop-color="#D7D5D1"/>
<stop offset="1" stop-color="#B9B6AF"/>
</radialGradient>
<linearGradient id="paint2_linear" x1="203.684" y1="124.83" x2="230.86" y2="226.252" gradientUnits="userSpaceOnUse">
<stop stop-color="#8CC97B"/>
<stop offset="1" stop-color="#76B763"/>
</linearGradient>
<clipPath id="clip0">
<rect width="271.5" height="256.1" fill="white" transform="translate(0 207.224) rotate(-49.5215)"/>
</clipPath>
</defs>
</svg>
