<svg width="138" height="63" viewBox="0 0 138 63" fill="none" xmlns="http://www.w3.org/2000/svg">
<g clip-path="url(#clip0)">
<path d="M101.2 37.4C101.4 36.1 101.4 34.8 101.4 33.5C101.4 15.6 86.8996 1.10001 68.9996 1.10001C51.0996 1.10001 36.5996 15.6 36.5996 33.5C36.5996 34.9 36.6996 36.2 36.8996 37.6" stroke="url(#paint0_linear)" stroke-width="1.2467" stroke-miterlimit="10"/>
<path d="M69.1998 4.10001C52.8998 4.10001 39.7998 17.3 39.7998 33.5C39.7998 49.8 52.9998 62.9 69.1998 62.9C85.3998 62.9 98.6998 49.8 98.6998 33.5C98.6998 17.3 85.4998 4.10001 69.1998 4.10001ZM82.0998 16.5C81.1998 17.7 80.3998 18.9 79.4998 20.1C78.8998 20.9 78.2998 21.8 77.5998 22.6C76.8998 23.5 76.0998 24.2 75.0998 24.7C74.6998 24.9 74.2998 25.1 73.8998 25.3C73.0998 25.7 72.4998 26.4 71.9998 27.1C71.4998 27.8 70.8998 28.5 70.3998 29.2C70.5998 29.4 70.6998 29.5 70.8998 29.7C73.4998 32.5 76.0998 35.4 78.7998 38.2C78.9998 38.4 79.1998 38.6 79.2998 38.8C79.6998 39.5 79.3998 40.4 78.6998 40.7C78.0998 40.9 77.5998 40.8 77.1998 40.3C75.0998 37.8 72.9998 35.2 70.8998 32.7C70.6998 32.4 70.4998 32.2 70.1998 31.9C70.1998 32 70.1998 32 70.1998 32.1C70.2998 34.1 70.3998 36.1 70.4998 38.1C70.4998 38.6 70.4998 39.1 70.4998 39.6C70.4998 40.4 69.7998 41 68.9998 40.8C68.4998 40.7 68.0998 40.2 68.0998 39.6C68.0998 38.4 68.1998 37.2 68.1998 36C68.2998 34.6 68.2998 33.2 68.3998 31.8C68.2998 31.9 68.2998 31.9 68.2998 32C66.1998 34.7 63.9998 37.5 61.8998 40.2C61.4998 40.7 61.0998 40.8 60.4998 40.7C59.7998 40.5 59.1998 39.4 59.8998 38.6C60.8998 37.5 61.8998 36.3 62.8998 35.2C64.5998 33.3 66.2998 31.3 67.8998 29.4C67.8998 29.4 67.8998 29.4 67.9998 29.3C67.7998 29 67.5998 28.8 67.3998 28.5C66.6998 27.7 66.0998 26.9 65.2998 26.2C65.1998 26.1 65.0998 26 64.9998 26C64.9998 26 64.8998 26 64.7998 26C64.7998 26 64.7998 25.9 64.7998 25.8C64.6998 25.8 64.6998 25.9 64.5998 25.9C64.5998 25.8 64.5998 25.8 64.5998 25.7C64.4998 25.7 64.4998 25.8 64.3998 25.8C64.3998 25.7 64.3998 25.7 64.3998 25.6C64.2998 25.6 64.2998 25.7 64.1998 25.7C64.1998 25.6 64.1998 25.6 64.1998 25.5C63.9998 25.5 63.8998 25.5 63.8998 25.5C63.8998 25.4 63.8998 25.4 63.8998 25.3C63.7998 25.3 63.7998 25.3 63.6998 25.4C63.6998 25.3 63.6998 25.3 63.6998 25.2C63.5998 25.2 63.5998 25.3 63.4998 25.3C63.4998 25.2 63.4998 25.2 63.4998 25.1C63.3998 25.1 63.3998 25.1 63.2998 25.2C63.2998 25.1 63.2998 25.1 63.3998 25C63.2998 25 63.2998 25 63.1998 25.1C63.1998 25 63.1998 25 63.1998 24.9C63.0998 24.9 63.0998 24.9 62.9998 24.9C62.9998 24.8 62.9998 24.8 62.9998 24.7C62.8998 24.7 62.8998 24.7 62.7998 24.7C62.7998 24.6 62.7998 24.6 62.8998 24.5C62.7998 24.5 62.7998 24.5 62.6998 24.5C62.6998 24.4 62.6998 24.4 62.7998 24.3C62.6998 24.3 62.6998 24.3 62.5998 24.3C62.5998 24.2 62.5998 24.2 62.6998 24.1C62.5998 24.1 62.5998 24.1 62.4998 24.1C62.4998 24 62.4998 24 62.5998 23.9C62.4998 23.9 62.4998 23.9 62.3998 23.9C62.3998 23.8 62.3998 23.8 62.4998 23.7C62.3998 23.7 62.3998 23.7 62.2998 23.8C62.2998 23.7 62.3998 23.7 62.3998 23.6C62.2998 23.6 62.2998 23.6 62.1998 23.7C62.1998 23.6 62.1998 23.6 62.2998 23.5C62.1998 23.5 62.1998 23.5 62.0998 23.5C62.0998 23.4 62.0998 23.4 62.0998 23.3C61.9998 23.3 61.9998 23.3 61.8998 23.3C61.8998 23.2 61.8998 23.2 61.9998 23.1C61.8998 23.1 61.8998 23.1 61.7998 23.1C61.7998 23 61.8998 23 61.8998 22.9C61.7998 22.9 61.7998 22.9 61.6998 23C61.6998 22.9 61.6998 22.9 61.7998 22.8C61.6998 22.8 61.6998 22.8 61.5998 22.8C61.5998 22.7 61.5998 22.7 61.6998 22.6C61.5998 22.6 61.5998 22.6 61.4998 22.6C61.4998 22.5 61.4998 22.5 61.5998 22.4C61.4998 22.4 61.4998 22.4 61.3998 22.4C61.3998 22.3 61.3998 22.3 61.4998 22.2C61.3998 22.2 61.3998 22.2 61.2998 22.2C61.2998 22.1 61.3998 22.1 61.3998 22C61.2998 22 61.2998 22 61.1998 22C61.1998 21.9 61.1998 21.9 61.2998 21.8C61.1998 21.8 61.1998 21.8 61.0998 21.8C61.0998 21.7 61.0998 21.7 61.1998 21.6C61.0998 21.6 60.9998 21.6 60.9998 21.6C60.9998 21.5 61.0998 21.4 61.0998 21.4C60.9998 21.4 60.8998 21.4 60.7998 21.4C60.7998 21.3 60.8998 21.3 60.8998 21.2C60.7998 21.2 60.6998 21.2 60.6998 21.2C60.6998 21.1 60.6998 21.1 60.7998 21C60.6998 21 60.5998 21 60.5998 21C60.5998 20.9 60.6998 20.9 60.6998 20.8C60.5998 20.8 60.4998 20.8 60.4998 20.8C60.4998 20.7 60.5998 20.7 60.5998 20.6C60.4998 20.6 60.3998 20.6 60.2998 20.6C60.2998 20.5 60.3998 20.4 60.3998 20.4C60.2998 20.4 60.1998 20.4 60.0998 20.4C60.0998 20.3 60.1998 20.3 60.1998 20.2C60.0998 20.2 59.9998 20.2 59.9998 20.2C59.9998 20.1 60.0998 20.1 60.0998 20C59.9998 20 59.8998 20 59.8998 20C59.8998 19.9 59.9998 19.9 59.9998 19.8C59.8998 19.8 59.7998 19.8 59.6998 19.8C59.6998 19.7 59.7998 19.7 59.7998 19.6C59.6998 19.6 59.6998 19.6 59.5998 19.6C59.5998 19.5 59.6998 19.5 59.6998 19.4C59.5998 19.4 59.4998 19.4 59.3998 19.4C59.3998 19.3 59.4998 19.3 59.4998 19.2C59.3998 19.2 59.2998 19.2 59.1998 19.2C59.1998 19.1 59.2998 19.1 59.2998 19C59.1998 19 59.0998 19 59.0998 19C59.0998 18.9 59.1998 18.9 59.1998 18.8C59.0998 18.8 58.9998 18.8 58.9998 18.8C58.9998 18.7 59.0998 18.7 59.0998 18.6C58.9998 18.6 58.9998 18.6 58.8998 18.6C58.8998 18.5 58.9998 18.5 58.9998 18.4C58.8998 18.4 58.8998 18.4 58.7998 18.4C58.7998 18.3 58.8998 18.3 58.8998 18.2C58.7998 18.2 58.7998 18.2 58.6998 18.2C58.7998 18.1 58.7998 18.1 58.8998 18C58.7998 18 58.6998 18 58.6998 18C58.7998 17.9 58.7998 17.9 58.8998 17.8C58.7998 17.8 58.7998 17.8 58.6998 17.7C58.7998 17.6 58.7998 17.6 58.8998 17.5C58.7998 17.5 58.7998 17.5 58.6998 17.4C58.7998 17.3 58.7998 17.3 58.8998 17.2C58.7998 17.2 58.7998 17.1 58.6998 17.1C58.7998 17 58.7998 17 58.8998 16.9C58.7998 16.9 58.7998 16.9 58.6998 16.8C58.7998 16.7 58.7998 16.7 58.8998 16.6C58.7998 16.6 58.7998 16.5 58.6998 16.5C58.7998 16.4 58.7998 16.4 58.8998 16.3C58.7998 16.3 58.7998 16.2 58.6998 16.2C58.6998 16.2 58.7998 16.1 58.8998 16.1C58.7998 16.1 58.7998 16 58.6998 16C58.7998 15.9 58.8998 15.8 58.6998 15.8C58.6998 15.7 58.7998 15.5 58.7998 15.4C58.7998 15.2 58.9998 15.1 59.1998 15C59.3998 15 59.5998 15.1 59.6998 15.2C60.2998 16 60.9998 16.7 61.5998 17.5C63.7998 20.2 65.9998 22.8 68.1998 25.5C68.6998 26.1 69.1998 26.8 69.6998 27.4C69.6998 27.5 69.7998 27.5 69.8998 27.6C69.8998 27.4 69.8998 27.3 69.8998 27.2C69.8998 26.2 69.9998 25.2 69.9998 24.1C70.0998 23 69.6998 22.1 68.9998 21.3C68.5998 20.9 68.2998 20.5 67.8998 20C67.1998 19 66.8998 17.8 66.8998 16.6C66.9998 14.4 67.6998 12.6 69.0998 10.9C69.2998 10.7 69.4998 10.5 69.7998 10.3C70.1998 10 70.5998 10 71.0998 10.3C71.4998 10.6 71.7998 10.9 72.0998 11.3C73.2998 12.9 73.8998 14.6 73.9998 16.6C73.9998 18.1 73.5998 19.4 72.5998 20.6C72.2998 20.9 71.9998 21.3 71.6998 21.6C71.1998 22.2 70.8998 23 70.8998 23.8C70.8998 25 70.9998 26.2 70.9998 27.4C70.9998 27.4 70.9998 27.4 70.9998 27.5C70.9998 27.5 71.0998 27.5 71.0998 27.4C71.4998 26.9 71.9998 26.4 72.3998 25.9C72.9998 25.2 73.2998 24.4 73.4998 23.5C73.7998 22 74.3998 20.6 75.4998 19.5C77.0998 17.8 78.7998 16.1 80.3998 14.3C80.4998 14.2 80.5998 14.1 80.6998 14C80.6998 14 80.6998 14 80.7998 14.1C80.6998 14.2 80.6998 14.3 80.5998 14.4C79.7998 15.5 78.9998 16.5 78.1998 17.6C77.7998 18.2 77.2998 18.7 76.8998 19.3C76.7998 19.5 76.5998 19.7 76.4998 19.9C76.3998 20 76.3998 20.2 76.5998 20.3C76.6998 20.4 76.8998 20.3 76.8998 20.2C77.2998 19.8 77.6998 19.3 78.0998 18.8C79.0998 17.6 80.1998 16.4 81.1998 15.2C81.2998 15 81.4998 14.9 81.6998 14.7C81.6998 14.7 81.7998 14.7 81.7998 14.8C81.6998 14.9 81.6998 15.1 81.5998 15.2C81.2998 15.6 80.9998 16.1 80.6998 16.5C79.6998 17.7 78.6998 19 77.7998 20.2C77.6998 20.3 77.5998 20.5 77.4998 20.7C77.3998 20.8 77.3998 21 77.5998 21.1C77.7998 21.2 77.8998 21.1 77.9998 21C78.4998 20.4 78.8998 19.9 79.3998 19.3C80.2998 18.2 81.1998 17.1 82.1998 16C82.2998 15.8 82.4998 15.7 82.6998 15.6C82.6998 15.6 82.7998 15.6 82.8998 15.6C82.8998 15.7 82.8998 15.7 82.8998 15.8C82.7998 16 82.6998 16.2 82.5998 16.3C81.3998 17.9 80.1998 19.4 78.9998 20.9C78.8998 21.1 78.6998 21.3 78.5998 21.5C78.4998 21.6 78.4998 21.8 78.6998 21.9C78.8998 22 78.8998 21.9 78.9998 21.8C79.5998 21.1 80.2998 20.3 80.8998 19.5C81.6998 18.6 82.4998 17.7 83.1998 16.8C83.2998 16.7 83.4998 16.5 83.5998 16.4C83.5998 16.4 83.6998 16.3 83.7998 16.3C82.2998 16.1 82.1998 16.3 82.0998 16.5Z" fill="url(#paint1_linear)"/>
<path d="M35.9998 32.9H1.2998" stroke="url(#paint2_linear)" stroke-width="1.2467" stroke-miterlimit="10" stroke-linecap="round" stroke-linejoin="round"/>
<path d="M36.3 29.1H6.5" stroke="url(#paint3_linear)" stroke-width="1.2467" stroke-miterlimit="10" stroke-linecap="round" stroke-linejoin="round"/>
<path d="M101.7 32.9H136.4" stroke="url(#paint4_linear)" stroke-width="1.2467" stroke-miterlimit="10" stroke-linecap="round" stroke-linejoin="round"/>
<path d="M101.4 29.1H131.3" stroke="url(#paint5_linear)" stroke-width="1.2467" stroke-miterlimit="10" stroke-linecap="round" stroke-linejoin="round"/>
<rect x="-5" y="37.5" width="151" height="32" fill="white"/>
<path d="M12.8 51.2L11.6 52.3V58.5H9.5V52.3H3.4V58.5H1.2V52.3L0 51.2L1.2 50.1V43.8H3.3V50.1H9.4V43.8H11.5V50.1L12.8 51.2Z" fill="#22242E"/>
<path d="M25.4999 58.5H16.5999V52.3L15.3999 51.2L16.5999 50.1V43.8H25.4999V45.9H18.7999V50.1H23.9999V52.2H18.7999V56.3H25.4999V58.5Z" fill="#22242E"/>
<path d="M40.4998 58.5H38.2998L36.8998 54.8H30.8998L29.4998 58.5H27.2998L29.5998 52.3L28.5998 51.2L30.3998 50.3L32.7998 43.8H34.9998L40.4998 58.5ZM36.0998 52.7L33.8998 46.7L31.6998 52.7H36.0998Z" fill="#22242E"/>
<path d="M52.4999 58.5H43.5999V52.3L42.3999 51.2L43.5999 50.1V43.8H45.6999V56.3H52.3999V58.5H52.4999Z" fill="#22242E"/>
<path d="M65.0999 46H60.7999V50.2L61.9999 51.3L60.7999 52.4V58.5H58.6999V52.3L57.4999 51.2L58.6999 50.1V45.9H54.3999V43.8H65.0999V46Z" fill="#22242E"/>
<path d="M79.9998 51.2L78.7998 52.3V58.5H76.6998V52.3H70.5998V58.5H68.4998V52.3L67.2998 51.2L68.4998 50.1V43.8H70.5998V50.1H76.6998V43.8H78.7998V50.1L79.9998 51.2Z" fill="#22242E"/>
<path d="M92.6998 46H86.0998V50.2H91.2998V52.3H86.0998V58.5H83.9998V52.3L82.7998 51.2L83.9998 50.1V43.8H92.6998V46Z" fill="#22242E"/>
<path d="M108.1 51.2L106.9 52.3V56.1L104.2 58.5H99L96.2 56.1V52.3L95 51.2L96.2 50.1V46.2L99 43.8H104.2L106.9 46.2V50.1L108.1 51.2ZM104.8 55.1V47.3L103.3 46H99.9L98.4 47.3V55.1L99.9 56.4H103.3L104.8 55.1Z" fill="#22242E"/>
<path d="M123 51.2L121.8 52.3V56.1L119 58.5H113.8L111 56.1V52.3L109.8 51.2L111 50.1V46.2L113.8 43.8H119L121.7 46.2V50.1L123 51.2ZM119.6 55.1V47.3L118.1 46H114.7L113.2 47.3V55.1L114.7 56.4H118.1L119.6 55.1Z" fill="#22242E"/>
<path d="M136.5 56.1L133.8 58.5H126.1V52.3L124.9 51.2L126.1 50.1V43.8H133.8L136.5 46.2V56.1ZM134.3 55.1V47.4L132.8 46.1H128.2V56.5H132.8L134.3 55.1Z" fill="#22242E"/>
</g>
<defs>
<linearGradient id="paint0_linear" x1="35.9764" y1="19.0772" x2="102.009" y2="19.0772" gradientUnits="userSpaceOnUse">
<stop stop-color="#7DB85C"/>
<stop offset="1" stop-color="#93CB76"/>
</linearGradient>
<linearGradient id="paint1_linear" x1="39.7604" y1="33.5163" x2="98.6564" y2="33.5163" gradientUnits="userSpaceOnUse">
<stop stop-color="#7DB85C"/>
<stop offset="1" stop-color="#93CB76"/>
</linearGradient>
<linearGradient id="paint2_linear" x1="-nan" y1="-nan" x2="-nan" y2="-nan" gradientUnits="userSpaceOnUse">
<stop stop-color="#93CB76"/>
<stop offset="1" stop-color="#7DB85C"/>
</linearGradient>
<linearGradient id="paint3_linear" x1="-nan" y1="-nan" x2="-nan" y2="-nan" gradientUnits="userSpaceOnUse">
<stop offset="0.03127" stop-color="#93CB76"/>
<stop offset="1" stop-color="#7DB85C"/>
</linearGradient>
<linearGradient id="paint4_linear" x1="-nan" y1="-nan" x2="-nan" y2="-nan" gradientUnits="userSpaceOnUse">
<stop stop-color="#93CB76"/>
<stop offset="1" stop-color="#7DB85C"/>
</linearGradient>
<linearGradient id="paint5_linear" x1="-nan" y1="-nan" x2="-nan" y2="-nan" gradientUnits="userSpaceOnUse">
<stop stop-color="#93CB76"/>
<stop offset="1" stop-color="#7DB85C"/>
</linearGradient>
<clipPath id="clip0">
<rect width="137.1" height="62.5" fill="white" transform="translate(0 0.5)"/>
</clipPath>
</defs>
</svg>
